<mxfile host="app.diagrams.net" modified="2021-06-09T09:25:06.355Z" agent="5.0 (Windows NT 10.0; Win64; x64) AppleWebKit/537.36 (KHTML, like Gecko) Chrome/91.0.4472.77 Safari/537.36" etag="cU6fvP9AfnRwo-2e6KBZ" version="14.7.6" type="github">
  <diagram id="C5RBs43oDa-KdzZeNtuy" name="Page-1">
    <mxGraphModel dx="1331" dy="825" grid="1" gridSize="10" guides="1" tooltips="1" connect="1" arrows="1" fold="1" page="1" pageScale="1" pageWidth="827" pageHeight="1169" math="0" shadow="0">
      <root>
        <mxCell id="WIyWlLk6GJQsqaUBKTNV-0" />
        <mxCell id="WIyWlLk6GJQsqaUBKTNV-1" parent="WIyWlLk6GJQsqaUBKTNV-0" />
        <mxCell id="Ie-IbSEFdLj7QfXEva1Y-26" value="        实时监控团队工作---工作流程" style="swimlane;align=left;" vertex="1" parent="WIyWlLk6GJQsqaUBKTNV-1">
          <mxGeometry x="10" y="140" width="780" height="480" as="geometry">
            <mxRectangle x="150" y="120" width="220" height="23" as="alternateBounds" />
          </mxGeometry>
        </mxCell>
        <mxCell id="Ie-IbSEFdLj7QfXEva1Y-24" value="" style="swimlane;horizontal=0;align=center;" vertex="1" parent="Ie-IbSEFdLj7QfXEva1Y-26">
          <mxGeometry y="30" width="780" height="450" as="geometry">
            <mxRectangle y="30" width="50" height="40" as="alternateBounds" />
          </mxGeometry>
        </mxCell>
        <mxCell id="Ie-IbSEFdLj7QfXEva1Y-27" value="车管平台" style="swimlane;align=center;" vertex="1" parent="Ie-IbSEFdLj7QfXEva1Y-24">
          <mxGeometry x="150" width="120" height="450" as="geometry">
            <mxRectangle x="106" width="80" height="23" as="alternateBounds" />
          </mxGeometry>
        </mxCell>
        <mxCell id="Ie-IbSEFdLj7QfXEva1Y-31" value="异常停驻" style="strokeWidth=2;html=1;shape=mxgraph.flowchart.start_1;whiteSpace=wrap;align=center;" vertex="1" parent="Ie-IbSEFdLj7QfXEva1Y-27">
          <mxGeometry x="25" y="50" width="70" height="40" as="geometry" />
        </mxCell>
        <mxCell id="Ie-IbSEFdLj7QfXEva1Y-28" value="原因分析" style="swimlane;align=center;" vertex="1" parent="Ie-IbSEFdLj7QfXEva1Y-24">
          <mxGeometry x="410" width="210" height="450" as="geometry">
            <mxRectangle x="266" width="80" height="23" as="alternateBounds" />
          </mxGeometry>
        </mxCell>
        <mxCell id="Ie-IbSEFdLj7QfXEva1Y-25" value="车辆行为" style="swimlane;align=center;startSize=23;" vertex="1" parent="Ie-IbSEFdLj7QfXEva1Y-24">
          <mxGeometry x="26" width="124" height="450" as="geometry">
            <mxRectangle x="26" width="80" height="23" as="alternateBounds" />
          </mxGeometry>
        </mxCell>
        <mxCell id="Ie-IbSEFdLj7QfXEva1Y-33" value="&lt;font style=&quot;font-size: 11px&quot;&gt;开始&lt;/font&gt;" style="strokeWidth=2;html=1;shape=mxgraph.flowchart.start_1;whiteSpace=wrap;align=center;" vertex="1" parent="Ie-IbSEFdLj7QfXEva1Y-25">
          <mxGeometry x="27" y="50" width="70" height="40" as="geometry" />
        </mxCell>
        <mxCell id="Ie-IbSEFdLj7QfXEva1Y-29" value="管理层" style="swimlane;align=center;" vertex="1" parent="Ie-IbSEFdLj7QfXEva1Y-24">
          <mxGeometry x="620" width="160" height="450" as="geometry">
            <mxRectangle x="346" width="70" height="23" as="alternateBounds" />
          </mxGeometry>
        </mxCell>
        <mxCell id="Ie-IbSEFdLj7QfXEva1Y-30" value="监控团队" style="swimlane;align=center;" vertex="1" parent="Ie-IbSEFdLj7QfXEva1Y-24">
          <mxGeometry x="270" width="140" height="450" as="geometry">
            <mxRectangle x="186" width="80" height="23" as="alternateBounds" />
          </mxGeometry>
        </mxCell>
        <mxCell id="Ie-IbSEFdLj7QfXEva1Y-38" value="异常审核" style="rhombus;whiteSpace=wrap;html=1;align=center;" vertex="1" parent="Ie-IbSEFdLj7QfXEva1Y-30">
          <mxGeometry x="30" y="45" width="80" height="50" as="geometry" />
        </mxCell>
        <mxCell id="Ie-IbSEFdLj7QfXEva1Y-39" value="异常分类" style="shape=hexagon;perimeter=hexagonPerimeter2;whiteSpace=wrap;html=1;fixedSize=1;" vertex="1" parent="Ie-IbSEFdLj7QfXEva1Y-30">
          <mxGeometry x="25" y="180" width="90" height="40" as="geometry" />
        </mxCell>
        <mxCell id="Ie-IbSEFdLj7QfXEva1Y-40" value="" style="edgeStyle=orthogonalEdgeStyle;rounded=0;orthogonalLoop=1;jettySize=auto;html=1;" edge="1" parent="Ie-IbSEFdLj7QfXEva1Y-30" source="Ie-IbSEFdLj7QfXEva1Y-38" target="Ie-IbSEFdLj7QfXEva1Y-39">
          <mxGeometry relative="1" as="geometry" />
        </mxCell>
        <mxCell id="Ie-IbSEFdLj7QfXEva1Y-34" style="edgeStyle=orthogonalEdgeStyle;rounded=0;orthogonalLoop=1;jettySize=auto;html=1;" edge="1" parent="Ie-IbSEFdLj7QfXEva1Y-24" source="Ie-IbSEFdLj7QfXEva1Y-33" target="Ie-IbSEFdLj7QfXEva1Y-31">
          <mxGeometry relative="1" as="geometry" />
        </mxCell>
        <mxCell id="Ie-IbSEFdLj7QfXEva1Y-37" style="edgeStyle=orthogonalEdgeStyle;rounded=0;orthogonalLoop=1;jettySize=auto;html=1;" edge="1" parent="Ie-IbSEFdLj7QfXEva1Y-24" source="Ie-IbSEFdLj7QfXEva1Y-31" target="Ie-IbSEFdLj7QfXEva1Y-38">
          <mxGeometry relative="1" as="geometry">
            <mxPoint x="350" y="70" as="targetPoint" />
          </mxGeometry>
        </mxCell>
      </root>
    </mxGraphModel>
  </diagram>
</mxfile>
